<svg width="56" height="83" viewBox="0 0 56 83" fill="none" xmlns="http://www.w3.org/2000/svg">
<path d="M14.0374 82.6072C21.6578 82.6072 27.8053 76.4596 27.8053 68.8393V55.0714H14.0374C6.41705 55.0714 0.269531 61.2189 0.269531 68.8393C0.269531 76.4596 6.41705 82.6072 14.0374 82.6072Z" fill="#0ACF83"/>
<path d="M0.269531 41.3036C0.269531 33.6833 6.41705 27.5358 14.0374 27.5358H27.8053V55.0715H14.0374C6.41705 55.0715 0.269531 48.924 0.269531 41.3036Z" fill="#A259FF"/>
<path d="M0.269531 13.7679C0.269531 6.14752 6.41705 0 14.0374 0H27.8053V27.5357H14.0374C6.41705 27.5357 0.269531 21.3882 0.269531 13.7679Z" fill="#F24E1E"/>
<path d="M27.8052 0H41.573C49.1934 0 55.3409 6.14752 55.3409 13.7679C55.3409 21.3882 49.1934 27.5357 41.573 27.5357H27.8052V0Z" fill="#FF7262"/>
<path d="M55.3409 41.3036C55.3409 48.924 49.1934 55.0715 41.573 55.0715C33.9527 55.0715 27.8052 48.924 27.8052 41.3036C27.8052 33.6833 33.9527 27.5358 41.573 27.5358C49.1934 27.5358 55.3409 33.6833 55.3409 41.3036Z" fill="#1ABCFE"/>
</svg>
