<svg width="77" height="76" viewBox="0 0 77 76" fill="none" xmlns="http://www.w3.org/2000/svg">
<path d="M74.8341 34.5394L41.7207 1.4308C41.2674 0.977198 40.729 0.617365 40.1366 0.371863C39.5441 0.126361 38.909 0 38.2677 0C37.6263 0 36.9913 0.126361 36.3988 0.371863C35.8063 0.617365 35.268 0.977198 34.8146 1.4308L27.9417 8.30374L36.6632 17.0253C37.6918 16.6741 38.7984 16.6191 39.8567 16.8667C40.915 17.1143 41.8824 17.6544 42.6485 18.4254C43.4146 19.1964 43.9485 20.1673 44.1892 21.2272C44.43 22.2871 44.3679 23.3933 44.0101 24.4196L52.4141 32.8283C53.6574 32.3905 55.0128 32.3892 56.257 32.8245C57.5012 33.2599 58.5601 34.1059 59.2592 35.2234C59.9584 36.3408 60.2562 37.6631 60.1036 38.9724C59.951 40.2817 59.3571 41.5 58.4196 42.4267C57.4706 43.3815 56.2195 43.9772 54.8801 44.1121C53.5406 44.247 52.1959 43.9126 51.0756 43.1661C49.9553 42.4196 49.1289 41.3073 48.7376 40.0192C48.3463 38.7311 48.4144 37.3471 48.9302 36.1036L41.0951 28.2637V48.8967C42.286 49.4862 43.2389 50.4661 43.795 51.6731C44.3511 52.88 44.4767 54.241 44.151 55.5294C43.8252 56.8177 43.0677 57.9554 42.0048 58.753C40.9419 59.5505 39.6377 59.9597 38.3097 59.9123C36.9816 59.8648 35.71 59.3637 34.7067 58.4923C33.7033 57.621 33.029 56.4321 32.7959 55.1238C32.5629 53.8156 32.7853 52.4669 33.4261 51.3027C34.0668 50.1386 35.0872 49.2291 36.3172 48.7261V27.9035C35.6076 27.6127 34.9625 27.1843 34.4192 26.6431C33.8759 26.1018 33.4451 25.4584 33.1517 24.7499C32.8582 24.0414 32.7079 23.2818 32.7094 22.5149C32.7109 21.748 32.8642 20.989 33.1604 20.2816L24.5668 11.6833L1.86244 34.3877C1.40884 34.8411 1.04901 35.3794 0.803504 35.9719C0.558001 36.5644 0.431641 37.1994 0.431641 37.8408C0.431641 38.4821 0.558001 39.1172 0.803504 39.7097C1.04901 40.3021 1.40884 40.8405 1.86244 41.2938L34.9758 74.4072C35.4292 74.8608 35.9675 75.2206 36.56 75.4661C37.1525 75.7116 37.7875 75.838 38.4288 75.838C39.0702 75.838 39.7052 75.7116 40.2977 75.4661C40.8902 75.2206 41.4285 74.8608 41.8819 74.4072L74.8388 41.4503C75.2924 40.9969 75.6523 40.4586 75.8978 39.8661C76.1433 39.2736 76.2696 38.6385 76.2696 37.9972C76.2696 37.3559 76.1433 36.7208 75.8978 36.1283C75.6523 35.5358 75.2924 34.9975 74.8388 34.5441" fill="#E82828"/>
</svg>
