<svg width="28" height="28" viewBox="0 0 28 28" fill="none" xmlns="http://www.w3.org/2000/svg">
    <path d="M13.8314 0.391113C12.0151 0.391113 10.2165 0.748874 8.53838 1.44397C6.86027 2.13906 5.3355 3.15788 4.05114 4.44225C1.45724 7.03615 0 10.5542 0 14.2226C0 20.3361 3.96962 25.5228 9.46071 27.3624C10.1523 27.4731 10.3736 27.0443 10.3736 26.6709V24.3333C6.54227 25.1632 5.72622 22.4799 5.72622 22.4799C5.08997 20.8755 4.19093 20.4467 4.19093 20.4467C2.93227 19.5892 4.28775 19.6168 4.28775 19.6168C5.67089 19.7136 6.40396 21.0415 6.40396 21.0415C7.60729 23.1438 9.64051 22.5214 10.4289 22.1895C10.5534 21.2904 10.913 20.6818 11.3003 20.3361C8.22971 19.9903 5.00698 18.8008 5.00698 13.531C5.00698 11.9957 5.53258 10.7647 6.43162 9.78266C6.29331 9.43688 5.80921 7.99841 6.56993 6.13116C6.56993 6.13116 7.73178 5.75771 10.3736 7.54197C11.4663 7.23768 12.6558 7.08553 13.8314 7.08553C15.0071 7.08553 16.1966 7.23768 17.2893 7.54197C19.9311 5.75771 21.0929 6.13116 21.0929 6.13116C21.8537 7.99841 21.3696 9.43688 21.2313 9.78266C22.1303 10.7647 22.6559 11.9957 22.6559 13.531C22.6559 18.8146 19.4193 19.9764 16.3349 20.3222C16.8329 20.751 17.2893 21.5947 17.2893 22.881V26.6709C17.2893 27.0443 17.5106 27.4869 18.216 27.3624C23.7071 25.509 27.6629 20.3361 27.6629 14.2226C27.6629 12.4062 27.3051 10.6076 26.61 8.92949C25.9149 7.25138 24.8961 5.72662 23.6117 4.44225C22.3274 3.15788 20.8026 2.13906 19.1245 1.44397C17.4464 0.748874 15.6478 0.391113 13.8314 0.391113Z" fill="white"/>
</svg>
