<svg width="77" height="77" viewBox="0 0 77 77" fill="none" xmlns="http://www.w3.org/2000/svg">
<path d="M13.5274 0.231506C10.1607 0.231506 6.93179 1.56895 4.55112 3.94962C2.17045 6.33029 0.833008 9.55917 0.833008 12.9259V63.7037C0.833008 67.0705 2.17045 70.2994 4.55112 72.68C6.93179 75.0607 10.1607 76.3981 13.5274 76.3981H64.3052C67.672 76.3981 70.9009 75.0607 73.2815 72.68C75.6622 70.2994 76.9996 67.0705 76.9996 63.7037V12.9259C76.9996 9.55917 75.6622 6.33029 73.2815 3.94962C70.9009 1.56895 67.672 0.231506 64.3052 0.231506H13.5274ZM44.5611 55.4735C47.6078 57.9277 50.6488 59.1379 53.6842 59.1041C55.546 59.1041 56.9735 58.7627 57.9665 58.0801C58.4288 57.7799 58.805 57.3646 59.058 56.8749C59.311 56.3852 59.4321 55.838 59.4094 55.2873C59.4158 54.6866 59.2903 54.0918 59.0417 53.5449C58.7931 52.998 58.4275 52.5123 57.9707 52.1221C56.9777 51.2561 55.0989 50.3872 52.3344 49.5156C49.014 48.5564 46.454 47.3152 44.6542 45.7919C42.8883 44.2685 41.9884 42.1429 41.9545 39.415C41.9545 36.8395 43.0716 34.6828 45.3059 32.9451C47.478 31.2074 50.2567 30.3385 53.6419 30.3385C58.3586 30.3385 62.1429 31.4866 64.9949 33.7829L61.7367 38.8565C60.5635 37.9443 59.2176 37.2793 57.7803 36.9015C56.4887 36.4688 55.1391 36.2334 53.7773 36.2033C52.1693 36.2033 50.8815 36.4981 49.9139 37.0877C48.9548 37.6801 48.4752 38.4559 48.4752 39.415C48.4752 40.4701 49.0634 41.37 50.2398 42.1147C51.4246 42.8312 53.4416 43.6225 56.2908 44.4886C59.7352 45.5126 62.1866 46.8779 63.6451 48.5846C65.1035 50.2913 65.8328 52.4635 65.8328 55.1011C65.8328 57.8008 64.7932 60.1281 62.7142 62.0831C60.6661 64.007 57.6872 65.0155 53.7773 65.1086C48.6572 65.1086 44.3749 63.5725 40.9305 60.5005L44.5611 55.4735ZM21.161 58.1732C22.154 58.7938 23.3487 59.1041 24.7451 59.1041C26.2036 59.1041 27.4138 58.6852 28.3757 57.8473C29.3348 56.9785 29.8158 55.4735 29.8186 53.3323V30.897H36.1024V54.5426C36.0093 58.2042 34.9543 60.8418 32.9372 62.4554C31.8336 63.3885 30.5505 64.0855 29.167 64.5035C27.8841 64.8941 26.5516 65.0979 25.2106 65.1086C22.8832 65.1086 20.8197 64.7052 19.0199 63.8984C17.096 63.0323 15.4824 61.4963 14.1791 59.2903L18.5544 55.7062C19.3584 56.7923 20.2273 57.6146 21.161 58.1732Z" fill="#FFCC00"/>
</svg>
