<svg width="28" height="28" viewBox="0 0 28 28" fill="none" xmlns="http://www.w3.org/2000/svg">
    <path d="M24.9261 0C25.7413 0 26.5231 0.32383 27.0995 0.900252C27.676 1.47667 27.9998 2.25847 27.9998 3.07365V24.5892C27.9998 25.4044 27.676 26.1862 27.0995 26.7626C26.5231 27.3391 25.7413 27.6629 24.9261 27.6629H3.41057C2.59538 27.6629 1.81359 27.3391 1.23717 26.7626C0.660744 26.1862 0.336914 25.4044 0.336914 24.5892V3.07365C0.336914 2.25847 0.660744 1.47667 1.23717 0.900252C1.81359 0.32383 2.59538 0 3.41057 0H24.9261ZM24.1577 23.8208V15.6756C24.1577 14.3469 23.6299 13.0726 22.6903 12.133C21.7507 11.1934 20.4764 10.6656 19.1477 10.6656C17.8414 10.6656 16.3199 11.4647 15.5822 12.6635V10.9576H11.2945V23.8208H15.5822V16.2443C15.5822 15.0609 16.5351 14.0927 17.7184 14.0927C18.2891 14.0927 18.8363 14.3194 19.2398 14.7229C19.6433 15.1264 19.87 15.6736 19.87 16.2443V23.8208H24.1577ZM6.2998 8.54476C6.98456 8.54476 7.64127 8.27274 8.12546 7.78855C8.60965 7.30435 8.88167 6.64764 8.88167 5.96289C8.88167 4.53364 7.72905 3.36565 6.2998 3.36565C5.61097 3.36565 4.95035 3.63929 4.46328 4.12636C3.9762 4.61344 3.70256 5.27406 3.70256 5.96289C3.70256 7.39214 4.87055 8.54476 6.2998 8.54476ZM8.43599 23.8208V10.9576H4.17898V23.8208H8.43599Z" fill="white"/>
</svg>
