<svg width="60" height="84" viewBox="0 0 60 84" fill="none" xmlns="http://www.w3.org/2000/svg">
    <path d="M43.5642 27.2089C49.695 27.2089 55.1736 28.122 60 29.9482V39.3401C55.1736 37.253 49.9559 36.2095 44.3469 36.2095C35.6448 36.2095 29.7607 38.8086 26.6948 44.007C26.4494 44.4231 26.0103 44.695 25.5272 44.695H16.3923C15.5346 44.695 14.9136 43.8732 15.1959 43.0633C18.8801 32.4937 28.336 27.2089 43.5642 27.2089Z" fill="white"/>
    <path d="M60 81.2122C55.1736 83.0384 49.695 83.9515 43.5642 83.9515C25.236 83.9515 15.2685 75.8619 13.6626 59.6824C13.5885 58.9359 14.1837 58.2978 14.9339 58.2978H23.188C23.8535 58.2978 24.4075 58.8044 24.5002 59.4634C25.9533 69.7885 32.5688 74.951 44.3469 74.951C49.9559 74.951 55.1736 73.9075 60 71.8204V81.2122Z" fill="white"/>
    <path d="M10.3702 0V43.7207C10.3702 45.5094 11.8203 46.9594 13.609 46.9594H21.4839H23.5971C28.568 46.9594 32.5977 50.9891 32.5977 55.96H4.53428C2.03006 55.96 0 53.9299 0 51.4257V10.3702C0 4.6429 4.6429 0 10.3702 0Z" fill="white"/>
</svg>
