<svg width="86" height="85" viewBox="0 0 86 85" fill="none" xmlns="http://www.w3.org/2000/svg">
<path d="M42.8949 0C48.4517 0 53.9542 1.09451 59.088 3.22102C64.2219 5.34754 68.8867 8.46443 72.816 12.3937C76.7452 16.323 79.8621 20.9878 81.9887 26.1216C84.1152 31.2555 85.2097 36.7579 85.2097 42.3148C85.2097 53.5374 80.7515 64.3003 72.816 72.2359C64.8804 80.1714 54.1175 84.6296 42.8949 84.6296C37.338 84.6296 31.8356 83.5351 26.7017 81.4086C21.5678 79.2821 16.9031 76.1652 12.9738 72.2359C5.03823 64.3003 0.580078 53.5374 0.580078 42.3148C0.580078 31.0922 5.03823 20.3293 12.9738 12.3937C20.9094 4.45815 31.6723 0 42.8949 0ZM34.4319 56.4056C35.109 58.6906 35.0243 60.8064 34.4319 62.7528C34.4319 62.9644 34.2627 63.176 34.178 63.4722C34.0934 63.4722 34.0088 63.7684 33.8818 63.98C33.4164 64.9955 32.7393 65.9688 31.9353 66.8151C29.4811 69.5232 25.969 70.5388 24.5726 69.6925C22.9646 68.7615 23.8532 64.9532 26.646 61.9489C29.6927 58.7329 34.0934 56.6172 34.0934 56.6172L34.4319 56.4056ZM69.4263 18.1107C67.5221 10.5787 55.0392 8.12444 43.2757 12.3136C36.2514 14.8102 28.6348 18.7031 23.1762 23.8232C16.702 29.9166 15.6441 35.2059 16.0673 37.4063C17.506 45.1922 28.254 50.3123 32.6547 54.0783V54.1206C31.3853 54.7553 21.9067 59.5369 19.6217 64.4454C17.3367 69.6078 20.0449 73.3316 21.7375 73.8393C27.4077 75.3627 33.1202 72.6122 36.1668 67.9999C39.1289 63.5991 38.9173 57.8866 37.6055 55.0092C39.3827 54.5861 41.4562 54.3745 44.0797 54.6707C51.5271 55.5593 52.9658 60.1716 52.6696 62.1181C52.4157 64.0646 50.8501 65.1225 50.3423 65.461C49.8345 65.7572 49.6652 65.8841 49.7076 66.138C49.7499 66.4765 50.0038 66.4765 50.4269 66.3919C51.0616 66.265 54.3622 64.8263 54.4891 61.2295C54.6584 56.6595 50.3 51.5817 42.5987 51.7087C39.4251 51.7933 37.4363 52.0895 35.9976 52.6396L35.659 52.2588C30.8775 47.181 22.076 43.5842 22.4568 36.7292C22.5838 34.2327 23.4301 27.7162 39.3827 19.761C52.4157 13.2445 62.8675 15.0218 64.687 19.0417C67.2682 24.6695 59.1014 35.2059 45.5607 36.7292C40.3983 37.3217 37.6478 35.2905 36.9708 34.5712C36.2514 33.8518 36.1668 33.7249 35.9129 33.8518C35.4475 34.148 35.7437 34.8251 35.9129 35.2482C36.2938 36.3061 37.9864 38.0833 40.7791 39.0989C43.2757 39.9029 49.369 40.3683 56.6895 37.5332C64.8986 34.3596 71.3304 25.5158 69.4263 18.1107Z" fill="#F43ABC"/>
</svg>
