<svg width="84" height="83" viewBox="0 0 84 83" fill="none" xmlns="http://www.w3.org/2000/svg">
<mask id="mask0_280_23" style="mask-type:alpha" maskUnits="userSpaceOnUse" x="0" y="0" width="84" height="83">
<path fill-rule="evenodd" clip-rule="evenodd" d="M59.1628 82.6453C59.8268 82.9041 60.5368 83.0235 61.2489 82.9962C61.9609 82.9688 62.6597 82.7953 63.3018 82.4863L80.4789 74.2207C81.3635 73.7949 82.1099 73.128 82.6322 72.2967C83.1546 71.4654 83.4317 70.5036 83.4316 69.5218V13.4775C83.4318 12.4956 83.1548 11.5336 82.6324 10.7023C82.1101 9.87086 81.3636 9.20385 80.4789 8.77796L63.3018 0.513697C62.3312 0.0466805 61.2394 -0.107083 60.1776 0.073686C59.1157 0.254455 58.1363 0.760818 57.3749 1.52269L24.4912 31.5228L10.1684 20.65C9.52223 20.1597 8.72482 19.9109 7.91444 19.9469C7.10407 19.9828 6.33182 20.3012 5.73158 20.8468L1.13764 25.0256C0.779631 25.3512 0.49353 25.7479 0.297636 26.1904C0.101743 26.633 0.000369111 27.1115 1.0061e-06 27.5954C-0.000367099 28.0794 0.100278 28.558 0.295499 29.0009C0.490719 29.4437 0.776216 29.8409 1.13373 30.167L13.5552 41.4993L1.13438 52.8323C0.777063 53.1585 0.491737 53.5557 0.296637 53.9984C0.101538 54.4412 0.000958329 54.9198 0.0013264 55.4036C0.00169446 55.8874 0.103002 56.3658 0.298775 56.8083C0.494548 57.2507 0.780478 57.6475 1.13829 57.9731L5.73223 62.1519C6.33239 62.6976 7.1046 63.0161 7.91497 63.0522C8.72535 63.0882 9.5228 62.8396 10.1691 62.3494L24.4919 51.4772L57.3756 81.4766C57.8845 81.9854 58.4926 82.3833 59.1628 82.6453ZM62.5861 22.5598L37.6356 41.4993L62.5868 60.4396L62.5861 22.5598Z" fill="white"/>
</mask>
<g mask="url(#mask0_280_23)">
<path d="M80.4792 8.7917L63.2885 0.513751C62.3175 0.046136 61.2252 -0.107953 60.1628 0.0728292C59.1004 0.253612 58.1206 0.760316 57.359 1.52275L1.08322 52.8324C0.725637 53.1584 0.440069 53.5555 0.244798 53.9983C0.0495257 54.4411 -0.0511484 54.9197 -0.0507802 55.4036C-0.0504121 55.8876 0.0509901 56.3661 0.246935 56.8085C0.442881 57.251 0.729052 57.6477 1.08713 57.9732L5.68368 62.1519C6.28402 62.6983 7.05674 63.0172 7.8677 63.0533C8.67866 63.0894 9.47665 62.8403 10.1231 62.3494L77.8922 10.9381C80.1657 9.21342 83.4313 10.8351 83.4313 13.6887V13.4893C83.4313 12.5077 83.1543 11.546 82.632 10.7149C82.1098 9.88379 81.3636 9.21759 80.4792 8.7917Z" fill="#0065A9"/>
<g filter="url(#filter0_d_280_23)">
<path d="M80.4792 74.2077L63.2885 82.4843C62.3177 82.9521 61.2254 83.1064 60.163 82.9259C59.1007 82.7453 58.1207 82.2389 57.359 81.4767L1.08322 30.1664C0.725637 29.8403 0.440069 29.4432 0.244798 29.0005C0.0495257 28.5577 -0.0511484 28.079 -0.0507802 27.5951C-0.0504121 27.1112 0.0509901 26.6327 0.246935 26.1902C0.442881 25.7478 0.729052 25.3511 1.08713 25.0256L5.68368 20.8468C6.28402 20.3004 7.05674 19.9815 7.8677 19.9455C8.67866 19.9094 9.47665 20.1584 10.1231 20.6493L77.8922 72.06C80.1657 73.7853 83.4313 72.1636 83.4313 69.31V69.5095C83.4313 70.4911 83.1543 71.4527 82.632 72.2838C82.1098 73.115 81.3636 73.7818 80.4792 74.2077Z" fill="#007ACC"/>
</g>
<g filter="url(#filter1_d_280_23)">
<path d="M63.289 82.4863C62.3178 82.953 61.2255 83.1065 60.1632 82.9257C59.1009 82.7448 58.121 82.2385 57.3589 81.4766C59.283 83.4008 62.5733 82.0378 62.5733 79.3165V3.68148C62.5733 0.960182 59.283 -0.402747 57.3589 1.52204C58.121 0.7602 59.1009 0.253864 60.1632 0.0729989C61.2255 -0.107866 62.3178 0.0456701 63.289 0.51239L80.4765 8.77861C81.3616 9.20422 82.1085 9.87112 82.6312 10.7025C83.1539 11.5339 83.4312 12.4961 83.4312 13.4781V69.5218C83.4312 70.5039 83.1539 71.466 82.6312 72.2975C82.1085 73.1289 81.3616 73.7958 80.4765 74.2214L63.289 82.4863Z" fill="#1F9CF0"/>
</g>
<path opacity="0.25" fill-rule="evenodd" clip-rule="evenodd" d="M59.1124 82.6455C59.7762 82.9041 60.4862 83.0235 61.1981 82.9961C61.91 82.9688 62.6087 82.7953 63.2507 82.4864L80.4278 74.2208C81.3125 73.795 82.059 73.1279 82.5813 72.2966C83.1037 71.4652 83.3807 70.5032 83.3805 69.5213V13.4776C83.3807 12.4957 83.1037 11.5338 82.5813 10.7024C82.059 9.87099 81.3125 9.20397 80.4278 8.77808L63.2507 0.513819C62.2801 0.0468026 61.1883 -0.106961 60.1265 0.0738081C59.0646 0.254577 58.0852 0.76094 57.3238 1.52282L24.4401 31.5229L10.1173 20.6508C9.47113 20.1604 8.67372 19.9117 7.86334 19.9476C7.05297 19.9836 6.28072 20.302 5.68048 20.8476L1.08654 25.0263C0.728623 25.352 0.442602 25.7488 0.246766 26.1913C0.0509299 26.6338 -0.0504122 27.1123 -0.0507802 27.5962C-0.0511483 28.0801 0.0494656 28.5588 0.244628 29.0016C0.439791 29.4444 0.725208 29.8416 1.08263 30.1678L13.5041 41.4995L1.08328 52.8318C0.725771 53.158 0.440274 53.5551 0.245053 53.998C0.0498328 54.4408 -0.0508125 54.9194 -0.0504444 55.4034C-0.0500763 55.8873 0.0512971 56.3658 0.247191 56.8084C0.443085 57.2509 0.729186 57.6476 1.08719 57.9732L5.68113 62.152C6.28129 62.6977 7.0535 63.0162 7.86388 63.0523C8.67425 63.0884 9.47171 62.8397 10.118 62.3495L24.4415 51.4767L57.3251 81.4768C57.8339 81.9855 58.4424 82.3834 59.1124 82.6455ZM62.5357 22.5592L37.5845 41.4995L62.5357 60.439V22.5592Z" fill="url(#paint0_linear_280_23)"/>
</g>
<defs>
<filter id="filter0_d_280_23" x="-5.48294" y="14.5099" width="94.3463" height="73.9216" filterUnits="userSpaceOnUse" color-interpolation-filters="sRGB">
<feFlood flood-opacity="0" result="BackgroundImageFix"/>
<feColorMatrix in="SourceAlpha" type="matrix" values="0 0 0 0 0 0 0 0 0 0 0 0 0 0 0 0 0 0 127 0" result="hardAlpha"/>
<feOffset/>
<feGaussianBlur stdDeviation="2.71608"/>
<feColorMatrix type="matrix" values="0 0 0 0 0 0 0 0 0 0 0 0 0 0 0 0 0 0 0.25 0"/>
<feBlend mode="overlay" in2="BackgroundImageFix" result="effect1_dropShadow_280_23"/>
<feBlend mode="normal" in="SourceGraphic" in2="effect1_dropShadow_280_23" result="shape"/>
</filter>
<filter id="filter1_d_280_23" x="51.9267" y="-5.43296" width="36.9366" height="93.8646" filterUnits="userSpaceOnUse" color-interpolation-filters="sRGB">
<feFlood flood-opacity="0" result="BackgroundImageFix"/>
<feColorMatrix in="SourceAlpha" type="matrix" values="0 0 0 0 0 0 0 0 0 0 0 0 0 0 0 0 0 0 127 0" result="hardAlpha"/>
<feOffset/>
<feGaussianBlur stdDeviation="2.71608"/>
<feColorMatrix type="matrix" values="0 0 0 0 0 0 0 0 0 0 0 0 0 0 0 0 0 0 0.25 0"/>
<feBlend mode="overlay" in2="BackgroundImageFix" result="effect1_dropShadow_280_23"/>
<feBlend mode="normal" in="SourceGraphic" in2="effect1_dropShadow_280_23" result="shape"/>
</filter>
<linearGradient id="paint0_linear_280_23" x1="41.6648" y1="-0.00110916" x2="41.6648" y2="83" gradientUnits="userSpaceOnUse">
<stop stop-color="white"/>
<stop offset="1" stop-color="white" stop-opacity="0"/>
</linearGradient>
</defs>
</svg>
